<svg xmlns="http://www.w3.org/2000/svg" width="512" height="512" viewBox="0 0 512 512">
  <!-- test fixture: a 121-point polyline loop -->
  <path d="M416.0 259.0 L416.9 267.3 L417.1 275.3 L416.7 283.2 L415.5 290.8 L413.4 298.2 L410.6 305.4 L407.0 312.6 L402.8 319.6 L398.1 326.5 L393.1 333.4 L387.9 340.2 L382.6 347.0 L377.3 353.8 L372.2 360.5 L367.0 367.0 L361.8 373.4 L356.5 379.6 L351.0 385.4 L345.0 391.0 L338.6 396.1 L331.6 400.7 L324.0 404.8 L315.9 408.3 L307.2 411.2 L298.2 413.4 L289.0 415.1 L279.7 416.2 L270.5 416.6 L261.6 416.6 L253.0 416.0 L244.8 415.0 L237.0 413.6 L229.6 411.9 L222.4 409.9 L215.4 407.7 L208.3 405.2 L201.2 402.5 L193.9 399.6 L186.3 396.4 L178.6 393.1 L170.7 389.4 L162.9 385.4 L155.2 381.1 L147.7 376.4 L140.7 371.3 L134.4 365.7 L128.7 359.6 L123.7 353.0 L119.5 346.0 L115.9 338.6 L113.0 330.8 L110.5 322.6 L108.3 314.1 L106.3 305.4 L104.3 296.6 L102.5 287.8 L100.6 278.9 L98.9 270.1 L97.3 261.5 L96.0 253.0 L95.1 244.7 L94.9 236.7 L95.3 228.8 L96.5 221.2 L98.6 213.8 L101.4 206.6 L105.0 199.4 L109.2 192.4 L113.9 185.5 L118.9 178.6 L124.1 171.8 L129.4 165.0 L134.7 158.2 L139.8 151.5 L145.0 145.0 L150.2 138.6 L155.5 132.4 L161.0 126.6 L167.0 121.0 L173.4 115.9 L180.4 111.3 L188.0 107.2 L196.1 103.7 L204.8 100.8 L213.8 98.6 L223.0 96.9 L232.3 95.8 L241.5 95.4 L250.4 95.4 L259.0 96.0 L267.2 97.0 L275.0 98.4 L282.4 100.1 L289.6 102.1 L296.6 104.3 L303.7 106.8 L310.8 109.5 L318.1 112.4 L325.7 115.6 L333.4 118.9 L341.3 122.6 L349.1 126.6 L356.8 130.9 L364.3 135.6 L371.3 140.7 L377.6 146.3 L383.3 152.4 L388.3 159.0 L392.5 166.0 L396.1 173.4 L399.0 181.2 L401.5 189.4 L403.7 197.9 L405.7 206.6 L407.7 215.4 L409.5 224.2 L411.4 233.1 L413.1 241.9 L414.7 250.5 L416.0 259.0" fill="none" stroke="#111827" stroke-width="6"/>
</svg>
